<?xml version="1.0" encoding="utf-8"?>
<!-- Svg Vector Icons : http://www.onlinewebfonts.com/icon -->
<!DOCTYPE svg PUBLIC "-//W3C//DTD SVG 1.1//EN" "http://www.w3.org/Graphics/SVG/1.1/DTD/svg11.dtd">
<svg version="1.1" xmlns="http://www.w3.org/2000/svg" xmlns:xlink="http://www.w3.org/1999/xlink" x="0px" y="0px" viewBox="0 0 1000 1000" enable-background="new 0 0 1000 1000" xml:space="preserve">
<metadata> Svg Vector Icons : http://www.onlinewebfonts.com/icon </metadata>
<g><g><g><path d="M555.8,644.4c-23.8,25.4-39.3,35.9-49.9,35.9c-7.4,0-9.9-6.6-8.3-21.3c5-38.4,33.6-161.9,41.7-206c8.2-37.7,5.7-57.3-4.9-57.3c-20.4,0-70.3,33.5-103,67c-1.7,2.6-4.9,16.4-3.2,21.3c0,1.7,2.4,2.5,2.4,2.5c19.7-15.6,35.2-24.6,44.2-24.6c4,0,5.6,6.5,3.2,18c-9.8,49-26.2,125.2-38.4,188.1c-11.5,54.9-4.2,76.9,13,76.9s64.6-22.9,103.2-74.5c1.6-4,3.1-19.5,2.4-23.7C558.2,645.3,555.8,644.4,555.8,644.4z"/><path d="M548.4,255c-14,0-31.1,6.5-39.3,14.7c-3.2,4.1-6.5,16.3-7.4,22.9c0.9,14.8,4.9,22.9,13.1,27.9c4,3.2,31,0.8,36.8-2.5c9.9-6.5,18.8-19.6,20.5-35.2c0.7-7.3-0.8-17.2-4.1-22.1C566.4,258.3,559.8,255,548.4,255z"/><path d="M500,10C229.4,10,10,229.4,10,500c0,270.6,219.4,490,490,490c270.6,0,490-219.4,490-490C990,229.4,770.6,10,500,10z M500,913.4C271.7,913.4,86.6,728.3,86.6,500S271.7,86.6,500,86.6S913.4,271.7,913.4,500S728.3,913.4,500,913.4z"/></g></g><g></g><g></g><g></g><g></g><g></g><g></g><g></g><g></g><g></g><g></g><g></g><g></g><g></g><g></g><g></g></g>
</svg>