<svg viewBox="0 0 150 150" xmlns="http://www.w3.org/2000/svg">
    <path d="m68.737 100 31.25 -25 -31.25 -25v18.75h-56.25v12.5h56.25z" />
    <path
        d="M81.244 18.744a55.863 55.863 0 0 0 -39.775 16.481L50.306 44.063c8.263 -8.263 19.25 -12.819 30.938 -12.819s22.675 4.556 30.938 12.819S125 63.313 125 75s-4.556 22.675 -12.819 30.938 -19.25 12.819 -30.938 12.819 -22.675 -4.556 -30.938 -12.819l-8.838 8.838c10.619 10.625 24.744 16.481 39.775 16.481s29.156 -5.856 39.775 -16.481C131.644 104.156 137.5 90.031 137.5 75s-5.856 -29.156 -16.481 -39.775a55.863 55.863 0 0 0 -39.775 -16.481z" />
</svg>