<?xml version="1.0" encoding="UTF-8" standalone="no"?>
<!DOCTYPE svg PUBLIC "-//W3C//DTD SVG 1.1//EN" "http://www.w3.org/Graphics/SVG/1.1/DTD/svg11.dtd"><svg width="100%"
    height="100%" viewBox="0 0 93 68" version="1.1" xmlns="http://www.w3.org/2000/svg"
    xmlns:xlink="http://www.w3.org/1999/xlink" xml:space="preserve" xmlns:serif="http://www.serif.com/"
    style="fill:white;clip-rule:evenodd;stroke-linejoin:round;stroke-miterlimit:2;">
    <g id="Logo">
        <g>
            <g>
                <path
                    d="M33.016,31.34c1.945,0.704 3.41,1.706 4.396,3.006c0.986,1.299 1.479,2.843 1.479,4.63c0,2.491 -0.923,4.556 -2.771,6.194c-1.847,1.638 -4.257,2.457 -7.229,2.457c0,0 -2.686,0.063 -5,0c-1.352,-0.036 -2.577,0.302 -3.063,-0.543c-0.438,-0.763 -0.501,-1.707 -0.478,-2.869c0.049,-2.571 -0.01,-6.32 -0,-11.454c0.005,-3.107 0.06,-5.87 -0,-8.436c-0.064,-2.679 -0.187,-5.068 0.478,-5.997c0.559,-0.78 5.73,-0.432 5.73,-0.432c3.222,-0 5.673,0.643 7.354,1.929c1.681,1.286 2.521,3.121 2.521,5.503c-0,2.6 -1.139,4.604 -3.417,6.012Zm-9.125,-1.259l1.417,-0c2.5,-0 4.368,-0.379 5.604,-1.138c1.236,-0.758 1.854,-1.963 1.854,-3.615c0,-2.68 -1.903,-4.021 -5.708,-4.021l-3.167,0l0,8.774Zm0,14.134l3.417,0c2.139,0 3.694,-0.203 4.667,-0.609c0.972,-0.406 1.75,-1.029 2.333,-1.868c0.583,-0.84 0.875,-1.693 0.875,-2.559c-0,-0.867 -0.174,-1.632 -0.521,-2.295c-0.347,-0.663 -0.861,-1.252 -1.542,-1.767c-0.68,-0.514 -1.514,-0.9 -2.5,-1.157c-0.986,-0.258 -2.77,-0.386 -5.354,-0.386l-1.375,-0l0,10.641Z"
                    style="#fff" />
                <path
                    d="M45.016,17.148c0.75,-0 1.382,0.245 1.896,0.735c0.514,0.49 0.771,1.086 0.771,1.788c-0,0.702 -0.257,1.298 -0.771,1.788c-0.514,0.49 -1.139,0.735 -1.875,0.735c-0.736,-0 -1.361,-0.252 -1.875,-0.755c-0.514,-0.503 -0.771,-1.093 -0.771,-1.768c0,-0.676 0.257,-1.265 0.771,-1.768c0.514,-0.504 1.132,-0.755 1.854,-0.755Zm1.75,29.801c-0.013,0.605 -1.173,0.715 -1.75,0.715c-0.576,0 -1.703,-0.122 -1.708,-0.715c-0.035,-3.904 -0.026,-17.954 -0,-21.656c0.004,-0.58 1.153,-0.556 1.729,-0.556c0.576,-0 1.724,-0.024 1.729,0.556c0.035,3.941 0.092,17.483 0,21.656Z"
                    style="#fff" />
                <path
                    d="M74.269,46.958c-0.001,0.587 -1.081,0.706 -1.61,0.706c-0.53,0 -1.546,-0.133 -1.566,-0.706c-0.028,-0.795 -0,-3.137 -0,-3.137c-2.327,2.562 -5.007,3.843 -8.039,3.843c-3.033,0 -5.627,-1.117 -7.784,-3.352c-2.157,-2.236 -3.235,-4.902 -3.235,-8c-0,-3.098 1.085,-5.752 3.254,-7.961c2.17,-2.209 4.817,-3.313 7.941,-3.313c3.124,-0 5.745,1.268 7.863,3.804c-0,-0 0.008,-2.523 -0,-3.255c-0.007,-0.554 1.036,-1.126 1.566,-1.126c0.529,0 1.612,0.559 1.61,1.126c-0.012,3.765 0.005,17.441 -0,21.371Zm-10.98,-2.313c2.17,-0 4.039,-0.784 5.608,-2.353c1.568,-1.569 2.352,-3.523 2.352,-5.863c0,-2.339 -0.771,-4.3 -2.313,-5.882c-1.543,-1.581 -3.431,-2.372 -5.667,-2.372c-2.235,-0 -4.124,0.817 -5.666,2.451c-1.542,1.634 -2.314,3.562 -2.314,5.784c0,2.222 0.785,4.15 2.353,5.784c1.569,1.634 3.451,2.451 5.647,2.451Z"
                    style="#fff" />
                <path
                    d="M65.926,25.386c1.967,0.535 3.689,1.687 5.167,3.456c-0,-0 0.008,-2.523 -0,-3.255c-0.007,-0.554 1.036,-1.126 1.566,-1.126c0.529,0 1.612,0.559 1.61,1.126c-0.012,3.765 0.005,17.441 -0,21.371c-0.001,0.587 -1.081,0.706 -1.61,0.706c-0.53,0 -1.546,-0.133 -1.566,-0.706c-0.028,-0.795 -0,-3.137 -0,-3.137c-2.117,2.33 -4.525,3.601 -7.225,3.812c0.48,-1.045 0.905,-2.112 1.274,-3.196c1.4,-0.327 2.652,-1.042 3.755,-2.145c1.568,-1.569 2.352,-3.523 2.352,-5.863c0,-2.339 -0.771,-4.3 -2.313,-5.882c-0.703,-0.72 -1.478,-1.277 -2.324,-1.669c-0.166,-1.17 -0.394,-2.336 -0.686,-3.492Zm-4.456,22.171c-2.362,-0.328 -4.429,-1.41 -6.2,-3.245c-2.157,-2.236 -3.235,-4.902 -3.235,-8c-0,-3.098 1.085,-5.752 3.254,-7.961c2.17,-2.209 4.817,-3.313 7.941,-3.313c0.089,-0 0.177,0.001 0.264,0.003c0.302,1.053 0.547,2.117 0.734,3.185c-0.312,-0.034 -0.632,-0.051 -0.959,-0.051c-2.235,-0 -4.124,0.817 -5.666,2.451c-1.542,1.634 -2.314,3.562 -2.314,5.784c0,2.222 0.785,4.15 2.353,5.784c1.435,1.494 3.132,2.305 5.092,2.433c-0.37,0.995 -0.792,1.973 -1.264,2.93Z"
                    style="#fff" />
                <path
                    d="M90.35,26.633c0.276,0.36 0.44,1.447 -0.084,1.86c-0.674,0.531 -1.42,0.488 -2.125,0.351c-0.771,-0.149 -1.139,-1.246 -2.5,-1.246c-0.861,-0 -1.583,0.261 -2.166,0.784c-0.584,0.523 -0.875,1.166 -0.875,1.93c-0,0.764 0.326,1.435 0.979,2.011c0.652,0.576 1.812,1.287 3.479,2.131c1.667,0.845 2.951,1.776 3.854,2.795c0.903,1.019 1.354,2.265 1.354,3.74c0,1.877 -0.673,3.458 -2.021,4.745c-1.347,1.287 -3.007,1.93 -4.979,1.93c-2.75,0 -4.896,-1.679 -5.875,-2.412c-0.543,-0.408 -0.361,-1.603 0,-1.991c0.361,-0.389 1.452,-0.494 2.167,-0.342c0.958,0.205 2.028,1.568 3.583,1.568c1.056,0 1.959,-0.335 2.709,-1.005c0.75,-0.67 1.125,-1.454 1.125,-2.352c-0,-0.898 -0.341,-1.649 -1.021,-2.252c-0.681,-0.603 -1.848,-1.307 -3.5,-2.111c-1.653,-0.805 -2.903,-1.696 -3.75,-2.675c-0.848,-0.978 -1.271,-2.265 -1.271,-3.86c-0,-1.595 0.604,-2.956 1.812,-4.082c1.209,-1.126 2.806,-1.689 4.792,-1.689c1.986,0 3.629,1.28 4.313,2.172Z"
                    style="#fff" />
            </g>
        </g>
        <path
            d="M63.311,48.923c-2.468,4.781 -6.123,9.033 -10.875,12.276c-15.284,10.432 -36.164,6.497 -46.6,-8.782c-10.435,-15.278 -6.498,-36.151 8.786,-46.583c15.284,-10.431 36.164,-6.496 46.599,8.782c2.007,2.938 3.482,6.083 4.448,9.322c-0.783,-0.165 -1.599,-0.246 -2.446,-0.242c-1.08,-3.249 -2.715,-6.375 -4.922,-9.241c-10.553,-13.706 -30.222,-16.292 -43.894,-5.771c-13.672,10.52 -16.204,30.189 -5.651,43.895c10.554,13.705 30.223,16.291 43.895,5.771c3.495,-2.689 6.261,-5.976 8.267,-9.606c0.75,0.13 1.527,0.191 2.331,0.18l0.062,-0.001Z" />
    </g>
</svg>