<svg viewBox="0 0 150 150" xmlns="http://www.w3.org/2000/svg">
    <path d="m12.5 75 31.25 25v-18.75h56.25v-12.5H43.75V50z" />
    <path
        d="M81.255 18.745a55.865 55.865 0 0 0 -39.775 16.48L50.32 44.065c8.265 -8.265 19.25 -12.82 30.94 -12.82s22.675 4.555 30.94 12.82 12.82 19.25 12.82 30.94 -4.555 22.675 -12.82 30.94 -19.25 12.82 -30.94 12.82 -22.675 -4.555 -30.94 -12.82l-8.835 8.835c10.62 10.625 24.745 16.48 39.775 16.48s29.155 -5.855 39.775 -16.48c10.625 -10.62 16.48 -24.745 16.48 -39.775s-5.855 -29.155 -16.48 -39.775a55.865 55.865 0 0 0 -39.775 -16.48z" />
</svg>